<?xml version="1.0" encoding="utf-8"?>
<!-- Generator: Adobe Illustrator 17.0.0, SVG Export Plug-In . SVG Version: 6.00 Build 0)  -->
<!DOCTYPE svg PUBLIC "-//W3C//DTD SVG 1.1//EN" "http://www.w3.org/Graphics/SVG/1.1/DTD/svg11.dtd">
<svg version="1.1" id="Layer_1" xmlns="http://www.w3.org/2000/svg" xmlns:xlink="http://www.w3.org/1999/xlink" x="0px" y="0px"
	 width="24px" height="24px" viewBox="0 0 24 24" enable-background="new 0 0 24 24" xml:space="preserve">
<path fill="#00597D" d="M10.834,5.464c0.667,0.739,0.455,1.576-0.134,2.37c-0.14,0.188-0.301,0.374-0.495,0.578
	c-0.093,0.098-0.166,0.172-0.318,0.324C9.54,9.083,9.25,9.374,9.014,9.61c-0.114,0.114,0.666,1.673,2.18,3.189
	c1.513,1.515,3.072,2.295,3.187,2.18l0.872-0.872c0.48-0.48,0.734-0.712,1.083-0.941c0.726-0.476,1.518-0.606,2.186-0.009
	c2.181,1.56,3.415,2.517,4.02,3.146c1.179,1.225,1.025,3.112,0.007,4.188c-0.353,0.373-0.801,0.821-1.329,1.331
	c-3.198,3.2-9.948,1.253-15.12-3.925C0.925,12.717-1.021,5.967,2.17,2.773c0.573-0.582,0.762-0.771,1.32-1.321
	c1.039-1.024,3.012-1.184,4.212,0.001C8.333,2.077,9.338,3.371,10.834,5.464z M16.86,15.715l-0.872,0.872
	c-1.482,1.483-4.005,0.219-6.403-2.181c-2.399-2.401-3.661-4.924-2.179-6.406c0.235-0.235,0.526-0.526,0.871-0.872
	c0.139-0.14,0.203-0.204,0.28-0.285c0.104-0.11,0.19-0.206,0.259-0.291c-1.326-1.847-2.227-3-2.712-3.48
	C5.853,2.825,5.291,2.871,5.085,3.074c-0.55,0.542-0.731,0.723-1.301,1.302C1.731,6.43,3.303,11.879,7.707,16.287
	c4.403,4.407,9.851,5.979,11.919,3.91c0.52-0.502,0.945-0.926,1.271-1.271c0.236-0.249,0.278-0.764,0.007-1.046
	c-0.452-0.47-1.558-1.332-3.469-2.704C17.296,15.288,17.124,15.451,16.86,15.715z M13.883,0.704C18.801,1.3,22.7,5.2,23.296,10.117
	l-2.247,0.375c-0.434-3.961-3.579-7.107-7.541-7.541L13.883,0.704z M13.134,5.2c3.005,0.269,5.398,2.662,5.666,5.666l-2.254,0.376
	c-0.096-2.048-1.739-3.692-3.788-3.788L13.134,5.2z"/>
</svg>
