<svg width="20" height="20" viewBox="0 0 20 20" fill="none" xmlns="http://www.w3.org/2000/svg">
<path fill-rule="evenodd" clip-rule="evenodd" d="M18.3337 9.99996C18.3337 14.6 14.592 18.3333 10.0003 18.3333L9.76719 18.3301C5.27484 18.2065 1.66699 14.522 1.66699 9.99996C1.66699 5.40829 5.40033 1.66663 10.0003 1.66663C14.592 1.66663 18.3337 5.40829 18.3337 9.99996ZM8.35033 6.66663C8.10866 6.91663 8.10866 7.30829 8.35866 7.54996L10.817 9.99996L8.35866 12.45C8.10866 12.6916 8.10866 13.0916 8.35033 13.3333C8.60033 13.5833 8.99199 13.5833 9.23366 13.3333L12.142 10.4416C12.2587 10.325 12.3253 10.1666 12.3253 9.99996C12.3253 9.83329 12.2587 9.67496 12.142 9.55829L9.23366 6.66663C9.11699 6.54163 8.95866 6.48329 8.80033 6.48329C8.63366 6.48329 8.47533 6.54163 8.35033 6.66663Z" fill="#1D93E3"/>
</svg>
