<?xml version="1.0" encoding="utf-8"?>
<!-- Generator: Adobe Illustrator 17.0.0, SVG Export Plug-In . SVG Version: 6.00 Build 0)  -->
<!DOCTYPE svg PUBLIC "-//W3C//DTD SVG 1.1//EN" "http://www.w3.org/Graphics/SVG/1.1/DTD/svg11.dtd">
<svg version="1.1" id="Icons" xmlns="http://www.w3.org/2000/svg" xmlns:xlink="http://www.w3.org/1999/xlink" x="0px" y="0px"
	 width="8362.209px" height="6661.42px" viewBox="0 0 8362.209 6661.42" enable-background="new 0 0 8362.209 6661.42"
	 xml:space="preserve">
<path fill="#00597D" d="M6401.579,555.118H6124.02V277.559C6124.02,124.267,5999.751,0,5846.46,0s-277.559,124.267-277.559,277.559
	v277.559H2793.309V277.559C2793.309,124.267,2669.042,0,2515.75,0s-277.559,124.267-277.559,277.559v277.559h-277.559
	c-613.167,0-1110.237,497.07-1110.237,1110.237v3885.829c0,613.167,497.07,1110.236,1110.237,1110.236h4440.947
	c613.167,0,1110.236-497.07,1110.236-1110.236V1665.355C7511.815,1052.188,7014.745,555.118,6401.579,555.118z M6956.697,5551.184
	c0,306.583-248.535,555.118-555.118,555.118H1960.632c-306.583,0-555.118-248.535-555.118-555.118V1665.355
	c0-306.583,248.535-555.118,555.118-555.118h277.559v277.559c0,153.292,124.267,277.559,277.559,277.559
	s277.559-124.267,277.559-277.559v-277.559h2775.592v277.559c0,153.292,124.268,277.559,277.559,277.559
	s277.56-124.267,277.56-277.559v-277.559h277.559c306.583,0,555.118,248.535,555.118,555.118V5551.184z"/>
<path fill="#00597D" d="M6124.02,1942.914H2238.191c-153.292,0-277.559,124.267-277.559,277.559s124.267,277.559,277.559,277.559
	H6124.02c153.292,0,277.559-124.267,277.559-277.559S6277.311,1942.914,6124.02,1942.914z"/>
<path fill="#00597D" d="M2793.309,3330.71h-555.118c-153.292,0-277.559,124.268-277.559,277.559s124.267,277.559,277.559,277.559
	h555.118c153.292,0,277.559-124.267,277.559-277.559S2946.601,3330.71,2793.309,3330.71z"/>
<path fill="#00597D" d="M2793.309,4718.506h-555.118c-153.292,0-277.559,124.268-277.559,277.559s124.267,277.56,277.559,277.56
	h555.118c153.292,0,277.559-124.268,277.559-277.56S2946.601,4718.506,2793.309,4718.506z"/>
<path fill="#00597D" d="M4458.664,3330.71h-555.118c-153.292,0-277.559,124.268-277.559,277.559s124.267,277.559,277.559,277.559
	h555.118c153.292,0,277.56-124.267,277.56-277.559S4611.956,3330.71,4458.664,3330.71z"/>
<path fill="#00597D" d="M4458.664,4718.506h-555.118c-153.292,0-277.559,124.268-277.559,277.559s124.267,277.56,277.559,277.56
	h555.118c153.292,0,277.56-124.268,277.56-277.56S4611.956,4718.506,4458.664,4718.506z"/>
<path fill="#00597D" d="M6124.02,3330.71h-555.119c-153.292,0-277.559,124.268-277.559,277.559s124.268,277.559,277.559,277.559
	h555.119c153.292,0,277.559-124.267,277.559-277.559S6277.311,3330.71,6124.02,3330.71z"/>
<path fill="#00597D" d="M6124.02,4718.506h-555.119c-153.292,0-277.559,124.268-277.559,277.559s124.268,277.56,277.559,277.56
	h555.119c153.292,0,277.559-124.268,277.559-277.56S6277.311,4718.506,6124.02,4718.506z"/>
</svg>
